<svg version="1.1" id="Layer_1" xmlns="http://www.w3.org/2000/svg" xmlns:xlink="http://www.w3.org/1999/xlink" x="0px" y="0px"
	 width="100%" viewBox="0 0 2019 2048" enable-background="new 0 0 2019 2048" xml:space="preserve">
<path fill="#000000" opacity="1.000000" stroke="none" 
	d="
M1104.000000,2049.000000 
	C736.000000,2049.000000 368.500000,2049.000000 1.000000,2049.000000 
	C1.000000,1366.333374 1.000000,683.666687 1.000000,1.000000 
	C674.000000,1.000000 1347.000000,1.000000 2020.000000,1.000000 
	C2020.000000,683.666687 2020.000000,1366.333374 2020.000000,2049.000000 
	C1714.833374,2049.000000 1409.666626,2049.000000 1104.000000,2049.000000 
M1530.332520,443.654938 
	C1530.159058,442.856506 1530.236450,441.850555 1529.773804,441.291504 
	C1524.525879,434.952332 1519.655396,428.210175 1513.793335,422.488281 
	C1500.669312,409.677979 1486.234863,398.435150 1470.838867,388.399170 
	C1449.480957,374.476990 1426.825439,362.966736 1403.366821,353.247040 
	C1386.363525,346.202057 1368.718018,340.624817 1351.149658,335.052765 
	C1337.831055,330.828613 1324.332153,326.888428 1310.644897,324.180359 
	C1291.597046,320.411652 1272.344727,317.563904 1253.091064,314.985779 
	C1239.027954,313.102722 1224.837158,311.443298 1210.675781,311.180878 
	C1183.464600,310.676636 1156.189331,310.040283 1129.107910,313.989014 
	C1114.429688,316.129242 1099.700195,317.982513 1085.096924,320.551117 
	C1074.475342,322.419373 1064.022705,325.247314 1052.417847,327.892853 
	C1053.327759,321.155670 1054.024780,315.132629 1054.969849,309.148712 
	C1058.684326,285.630402 1068.777100,265.117615 1085.439209,248.223648 
	C1103.277954,230.136612 1125.291870,218.772446 1149.298340,211.044754 
	C1154.392334,209.404968 1159.470581,207.715439 1165.096191,205.871735 
	C1150.664062,190.236191 1135.266602,176.736206 1118.520630,164.744003 
	C1105.193115,155.199936 1091.018188,147.160339 1075.880981,140.875259 
	C1058.216431,133.540878 1039.932251,129.235077 1020.745239,127.673355 
	C1008.011169,126.636864 995.583374,127.589546 983.238281,129.576263 
	C961.256592,133.113831 940.738464,141.050766 921.220520,151.838745 
	C904.113770,161.293991 888.608276,172.917709 873.982605,185.696548 
	C865.564575,193.051620 857.589539,201.039200 850.238220,209.460587 
	C838.847900,222.509048 827.958191,236.012375 817.261169,249.640656 
	C811.904236,256.465668 807.442200,263.993134 802.165588,271.809998 
	C769.435974,196.855545 736.940613,122.437469 704.359680,47.823505 
	C660.267456,73.807930 616.735779,99.461990 572.901733,125.294273 
	C612.721619,176.877029 652.195557,228.011627 691.985474,279.555603 
	C690.614746,279.762665 690.254517,279.931213 689.975647,279.842926 
	C670.513916,273.681763 651.327271,266.377197 631.526184,261.641174 
	C612.359802,257.056976 592.654663,254.011307 573.012024,252.354736 
	C556.871155,250.993484 540.415405,251.914169 524.209839,253.208679 
	C509.965454,254.346542 495.705994,256.652496 481.751221,259.774628 
	C453.684509,266.054047 427.279938,276.918488 402.360077,291.293121 
	C373.344940,308.030060 346.914551,328.119873 323.956390,352.590759 
	C313.672180,363.552612 303.526520,374.655365 293.642700,385.977600 
	C288.399628,391.983795 283.851196,398.596344 278.526855,405.537903 
	C280.486847,405.744293 281.601318,406.054260 282.673340,405.945587 
	C298.434479,404.347351 314.158661,402.204773 329.955750,401.191498 
	C345.435425,400.198517 360.992249,399.933868 376.507324,400.097595 
	C392.914703,400.270691 409.367432,400.715210 425.699005,402.174683 
	C440.930786,403.535889 456.122223,405.894226 471.158569,408.730103 
	C484.089783,411.168884 496.842010,414.663910 509.549042,418.145752 
	C517.711426,420.382355 525.648560,423.441071 534.653259,426.454742 
	C527.504517,427.026520 521.565735,427.501038 515.627075,427.976593 
	C497.311523,429.443237 479.534027,433.593506 462.082672,439.119690 
	C432.872375,448.369446 404.676331,460.138367 378.168152,475.522278 
	C351.811981,490.817993 325.736542,506.615143 299.836151,522.673279 
	C277.986542,536.219971 256.700195,550.673279 234.901550,564.304688 
	C221.919296,572.422974 208.483994,579.826477 195.132339,587.338013 
	C191.362137,589.459045 187.168640,590.827637 182.233597,592.942261 
	C183.877869,593.610413 184.417282,593.884766 184.987961,594.053467 
	C202.985428,599.373230 220.965561,604.753235 238.994064,609.965942 
	C248.953918,612.845642 258.995605,615.442322 268.731262,618.762756 
	C264.694336,623.136353 260.539429,627.407715 256.642303,631.902527 
	C244.358307,646.070435 231.520248,659.821411 220.101379,674.660889 
	C203.671387,696.012573 187.885986,717.893127 172.575577,740.065918 
	C149.501068,773.482788 130.650620,809.309265 114.218521,846.411865 
	C101.348656,875.471191 90.473877,905.233459 81.497704,935.757935 
	C72.147255,967.555237 65.212112,999.844971 60.171700,1032.529663 
	C57.373993,1050.671631 55.626549,1069.003418 54.127964,1087.308838 
	C52.873627,1102.630737 52.443462,1118.033081 52.089924,1133.409912 
	C51.903961,1141.498291 52.602261,1149.611206 53.009274,1157.707764 
	C53.971241,1176.843872 54.843098,1195.986572 56.059727,1215.106934 
	C56.727009,1225.593628 57.533173,1236.115723 59.136597,1246.489014 
	C62.077000,1265.511719 64.934280,1284.597290 69.133881,1303.363892 
	C75.489624,1331.765503 82.379669,1360.078979 90.168266,1388.117432 
	C95.428986,1407.055542 101.902176,1425.741821 109.125298,1444.030396 
	C120.188637,1472.041992 131.445053,1500.050537 144.346451,1527.240967 
	C155.669647,1551.105103 168.970322,1574.070312 182.127686,1597.013916 
	C195.246277,1619.889771 210.478058,1641.368042 228.348740,1660.872070 
	C238.844437,1672.327026 249.026733,1684.085815 259.866180,1695.204956 
	C272.161041,1707.817139 284.754974,1720.169067 297.721191,1732.087769 
	C315.568726,1748.493530 333.708099,1764.594604 352.068970,1780.424438 
	C363.851440,1790.582642 375.825409,1800.623901 388.479126,1809.643677 
	C411.046265,1825.729858 433.766510,1841.681274 457.218536,1856.423096 
	C480.127594,1870.823608 503.754517,1884.156006 527.589722,1896.984863 
	C545.111511,1906.415527 563.198059,1914.939697 581.535278,1922.677246 
	C606.261353,1933.110596 631.276001,1942.940308 656.533691,1952.006958 
	C676.253113,1959.085571 696.411316,1965.036743 716.599976,1970.682617 
	C732.418884,1975.106689 748.533508,1978.526978 764.607422,1981.969849 
	C781.334534,1985.552612 798.130371,1988.852661 814.972412,1991.847412 
	C826.724487,1993.937012 838.577759,1995.536255 850.435974,1996.927124 
	C861.697205,1998.247925 873.015808,1999.114624 884.323364,1999.999146 
	C902.385620,2001.411865 920.445618,2003.497559 938.531860,2003.803345 
	C964.451782,2004.241455 990.397705,2003.489014 1016.325745,2002.931396 
	C1028.036743,2002.679321 1039.753540,2001.930664 1051.428589,2000.944580 
	C1068.280640,1999.521362 1085.126709,1997.927368 1101.920654,1995.942993 
	C1119.138184,1993.908447 1136.389282,1991.872437 1153.445557,1988.827881 
	C1174.929688,1984.992920 1196.436646,1980.937256 1217.562012,1975.525146 
	C1247.643066,1967.818604 1277.510254,1959.200317 1307.226196,1950.173096 
	C1324.477661,1944.932251 1341.479004,1938.681763 1358.193359,1931.900757 
	C1384.746582,1921.128174 1411.213989,1910.071655 1437.245117,1898.107178 
	C1456.838379,1889.101562 1475.964111,1878.973633 1494.800781,1868.454712 
	C1515.722534,1856.771362 1536.407227,1844.590454 1556.610229,1831.708618 
	C1591.237183,1809.629883 1624.634521,1785.765625 1655.660156,1758.775513 
	C1674.455078,1742.425171 1693.032227,1725.814941 1711.385986,1708.971436 
	C1718.948853,1702.030762 1725.768188,1694.263062 1732.747681,1686.707275 
	C1742.608887,1676.031738 1752.691040,1665.524780 1761.978882,1654.363403 
	C1775.179077,1638.500610 1787.988403,1622.295776 1800.525635,1605.901367 
	C1822.813843,1576.755737 1842.702026,1546.064941 1856.892944,1512.084595 
	C1867.680298,1486.253784 1878.873901,1460.493530 1887.733521,1433.982300 
	C1898.136475,1402.852173 1907.072144,1371.159180 1915.032104,1339.307373 
	C1921.858398,1311.992310 1926.951416,1284.203125 1931.785278,1256.445068 
	C1935.097412,1237.425171 1936.925171,1218.127197 1938.899414,1198.900391 
	C1940.363281,1184.644287 1941.758911,1170.307373 1941.841675,1155.998779 
	C1942.019897,1125.234497 1941.368774,1094.464722 1940.957764,1063.698486 
	C1940.894165,1058.927856 1940.461304,1054.146606 1939.929443,1049.400635 
	C1938.359619,1035.392944 1936.794312,1021.382019 1934.959229,1007.407593 
	C1933.427124,995.740601 1932.024414,984.018860 1929.658936,972.507568 
	C1925.827759,953.864258 1922.171143,935.102173 1916.779541,916.881958 
	C1908.708252,889.605469 1900.351440,862.301514 1889.958374,835.857178 
	C1880.492310,811.771179 1868.709961,788.529114 1856.894043,765.455017 
	C1848.137329,748.355103 1838.483643,731.589417 1827.796753,715.634521 
	C1814.177124,695.301025 1799.850098,675.339233 1784.471436,656.313660 
	C1767.915894,635.832153 1750.173950,616.262329 1732.209717,596.984192 
	C1721.161499,585.127991 1708.960083,574.302551 1696.851807,563.489502 
	C1683.734741,551.775513 1670.558228,540.049561 1656.629883,529.340637 
	C1634.353760,512.213684 1611.638062,495.636017 1588.709351,479.389252 
	C1575.950073,470.348267 1562.464111,462.316101 1549.143921,454.091064 
	C1543.245117,450.448608 1536.945801,447.454742 1530.332520,443.654938 
z"/>
<path fill="#F93208" opacity="1.000000" stroke="none" 
	d="
M1530.828369,444.166473 
	C1536.945801,447.454742 1543.245117,450.448608 1549.143921,454.091064 
	C1562.464111,462.316101 1575.950073,470.348267 1588.709351,479.389252 
	C1611.638062,495.636017 1634.353760,512.213684 1656.629883,529.340637 
	C1670.558228,540.049561 1683.734741,551.775513 1696.851807,563.489502 
	C1708.960083,574.302551 1721.161499,585.127991 1732.209717,596.984192 
	C1750.173950,616.262329 1767.915894,635.832153 1784.471436,656.313660 
	C1799.850098,675.339233 1814.177124,695.301025 1827.796753,715.634521 
	C1838.483643,731.589417 1848.137329,748.355103 1856.894043,765.455017 
	C1868.709961,788.529114 1880.492310,811.771179 1889.958374,835.857178 
	C1900.351440,862.301514 1908.708252,889.605469 1916.779541,916.881958 
	C1922.171143,935.102173 1925.827759,953.864258 1929.658936,972.507568 
	C1932.024414,984.018860 1933.427124,995.740601 1934.959229,1007.407593 
	C1936.794312,1021.382019 1938.359619,1035.392944 1939.929443,1049.400635 
	C1940.461304,1054.146606 1940.894165,1058.927856 1940.957764,1063.698486 
	C1941.368774,1094.464722 1942.019897,1125.234497 1941.841675,1155.998779 
	C1941.758911,1170.307373 1940.363281,1184.644287 1938.899414,1198.900391 
	C1936.925171,1218.127197 1935.097412,1237.425171 1931.785278,1256.445068 
	C1926.951416,1284.203125 1921.858398,1311.992310 1915.032104,1339.307373 
	C1907.072144,1371.159180 1898.136475,1402.852173 1887.733521,1433.982300 
	C1878.873901,1460.493530 1867.680298,1486.253784 1856.892944,1512.084595 
	C1842.702026,1546.064941 1822.813843,1576.755737 1800.525635,1605.901367 
	C1787.988403,1622.295776 1775.179077,1638.500610 1761.978882,1654.363403 
	C1752.691040,1665.524780 1742.608887,1676.031738 1732.747681,1686.707275 
	C1725.768188,1694.263062 1718.948853,1702.030762 1711.385986,1708.971436 
	C1693.032227,1725.814941 1674.455078,1742.425171 1655.660156,1758.775513 
	C1624.634521,1785.765625 1591.237183,1809.629883 1556.610229,1831.708618 
	C1536.407227,1844.590454 1515.722534,1856.771362 1494.800781,1868.454712 
	C1475.964111,1878.973633 1456.838379,1889.101562 1437.245117,1898.107178 
	C1411.213989,1910.071655 1384.746582,1921.128174 1358.193359,1931.900757 
	C1341.479004,1938.681763 1324.477661,1944.932251 1307.226196,1950.173096 
	C1277.510254,1959.200317 1247.643066,1967.818604 1217.562012,1975.525146 
	C1196.436646,1980.937256 1174.929688,1984.992920 1153.445557,1988.827881 
	C1136.389282,1991.872437 1119.138184,1993.908447 1101.920654,1995.942993 
	C1085.126709,1997.927368 1068.280640,1999.521362 1051.428589,2000.944580 
	C1039.753540,2001.930664 1028.036743,2002.679321 1016.325745,2002.931396 
	C990.397705,2003.489014 964.451782,2004.241455 938.531860,2003.803345 
	C920.445618,2003.497559 902.385620,2001.411865 884.323364,1999.999146 
	C873.015808,1999.114624 861.697205,1998.247925 850.435974,1996.927124 
	C838.577759,1995.536255 826.724487,1993.937012 814.972412,1991.847412 
	C798.130371,1988.852661 781.334534,1985.552612 764.607422,1981.969849 
	C748.533508,1978.526978 732.418884,1975.106689 716.599976,1970.682617 
	C696.411316,1965.036743 676.253113,1959.085571 656.533691,1952.006958 
	C631.276001,1942.940308 606.261353,1933.110596 581.535278,1922.677246 
	C563.198059,1914.939697 545.111511,1906.415527 527.589722,1896.984863 
	C503.754517,1884.156006 480.127594,1870.823608 457.218536,1856.423096 
	C433.766510,1841.681274 411.046265,1825.729858 388.479126,1809.643677 
	C375.825409,1800.623901 363.851440,1790.582642 352.068970,1780.424438 
	C333.708099,1764.594604 315.568726,1748.493530 297.721191,1732.087769 
	C284.754974,1720.169067 272.161041,1707.817139 259.866180,1695.204956 
	C249.026733,1684.085815 238.844437,1672.327026 228.348740,1660.872070 
	C210.478058,1641.368042 195.246277,1619.889771 182.127686,1597.013916 
	C168.970322,1574.070312 155.669647,1551.105103 144.346451,1527.240967 
	C131.445053,1500.050537 120.188637,1472.041992 109.125298,1444.030396 
	C101.902176,1425.741821 95.428986,1407.055542 90.168266,1388.117432 
	C82.379669,1360.078979 75.489624,1331.765503 69.133881,1303.363892 
	C64.934280,1284.597290 62.077000,1265.511719 59.136597,1246.489014 
	C57.533173,1236.115723 56.727009,1225.593628 56.059727,1215.106934 
	C54.843098,1195.986572 53.971241,1176.843872 53.009274,1157.707764 
	C52.602261,1149.611206 51.903961,1141.498291 52.089924,1133.409912 
	C52.443462,1118.033081 52.873627,1102.630737 54.127964,1087.308838 
	C55.626549,1069.003418 57.373993,1050.671631 60.171700,1032.529663 
	C65.212112,999.844971 72.147255,967.555237 81.497704,935.757935 
	C90.473877,905.233459 101.348656,875.471191 114.218521,846.411865 
	C130.650620,809.309265 149.501068,773.482788 172.575577,740.065918 
	C187.885986,717.893127 203.671387,696.012573 220.101379,674.660889 
	C231.520248,659.821411 244.358307,646.070435 256.642303,631.902527 
	C260.539429,627.407715 264.694336,623.136353 269.277405,618.377441 
	C281.343109,620.515991 292.851257,623.093201 304.384308,625.553772 
	C340.398407,633.237427 376.623108,639.530579 413.520599,640.789856 
	C434.887909,641.519104 456.228943,641.254211 477.455933,637.965576 
	C503.427917,633.941772 528.438110,626.884766 552.076660,615.274170 
	C576.443176,603.306030 598.743469,588.246338 618.638550,569.783813 
	C632.889160,556.559265 646.997925,543.156921 660.598694,529.274109 
	C664.160156,525.638855 665.374207,525.813293 668.119995,529.373718 
	C686.632935,553.379333 694.652832,580.498596 691.848022,610.609436 
	C690.249207,627.773010 685.888611,644.423523 679.198425,660.304871 
	C670.057678,682.003845 660.395142,703.482971 650.969482,725.062134 
	C648.442871,730.846497 645.964050,736.651733 643.163757,743.141479 
	C647.526428,742.719116 650.952942,742.380249 654.380920,742.056641 
	C668.663330,740.708374 682.994446,739.745361 697.219604,737.945190 
	C733.683716,733.330688 769.239502,725.182800 803.143860,710.458801 
	C827.279602,699.976929 849.273865,686.285034 868.300781,668.158875 
	C887.306519,650.052979 901.840637,628.755432 912.160767,604.507568 
	C925.431152,573.328003 931.103882,540.690247 931.995972,507.039978 
	C932.091431,503.437866 932.008789,499.831024 932.008789,495.480438 
	C934.055969,496.287140 935.391113,496.747437 936.671631,497.328156 
	C948.059631,502.492157 959.270264,508.092468 970.853638,512.770874 
	C995.583618,522.759033 1021.558472,527.966248 1048.030884,529.659363 
	C1070.700928,531.109253 1093.527222,531.306213 1116.118530,527.944885 
	C1136.875488,524.856506 1157.826050,522.353210 1178.187988,517.486084 
	C1211.855835,509.438416 1245.170044,499.881226 1278.538086,490.617096 
	C1310.448242,481.757751 1342.110229,471.983032 1374.114014,463.487885 
	C1407.725830,454.565918 1441.836304,448.858704 1476.899780,449.834167 
	C1493.651123,450.300201 1510.062012,451.713226 1526.045410,456.917603 
	C1530.118530,458.243866 1534.288696,459.272552 1539.306885,460.690155 
	C1536.191528,454.618652 1533.510010,449.392548 1530.828369,444.166473 
z"/>
<path fill="#02902E" opacity="1.000000" stroke="none" 
	d="
M1530.580444,443.910706 
	C1533.510010,449.392548 1536.191528,454.618652 1539.306885,460.690155 
	C1534.288696,459.272552 1530.118530,458.243866 1526.045410,456.917603 
	C1510.062012,451.713226 1493.651123,450.300201 1476.899780,449.834167 
	C1441.836304,448.858704 1407.725830,454.565918 1374.114014,463.487885 
	C1342.110229,471.983032 1310.448242,481.757751 1278.538086,490.617096 
	C1245.170044,499.881226 1211.855835,509.438416 1178.187988,517.486084 
	C1157.826050,522.353210 1136.875488,524.856506 1116.118530,527.944885 
	C1093.527222,531.306213 1070.700928,531.109253 1048.030884,529.659363 
	C1021.558472,527.966248 995.583618,522.759033 970.853638,512.770874 
	C959.270264,508.092468 948.059631,502.492157 936.671631,497.328156 
	C935.391113,496.747437 934.055969,496.287140 932.008789,495.480438 
	C932.008789,499.831024 932.091431,503.437866 931.995972,507.039978 
	C931.103882,540.690247 925.431152,573.328003 912.160767,604.507568 
	C901.840637,628.755432 887.306519,650.052979 868.300781,668.158875 
	C849.273865,686.285034 827.279602,699.976929 803.143860,710.458801 
	C769.239502,725.182800 733.683716,733.330688 697.219604,737.945190 
	C682.994446,739.745361 668.663330,740.708374 654.380920,742.056641 
	C650.952942,742.380249 647.526428,742.719116 643.163757,743.141479 
	C645.964050,736.651733 648.442871,730.846497 650.969482,725.062134 
	C660.395142,703.482971 670.057678,682.003845 679.198425,660.304871 
	C685.888611,644.423523 690.249207,627.773010 691.848022,610.609436 
	C694.652832,580.498596 686.632935,553.379333 668.119995,529.373718 
	C665.374207,525.813293 664.160156,525.638855 660.598694,529.274109 
	C646.997925,543.156921 632.889160,556.559265 618.638550,569.783813 
	C598.743469,588.246338 576.443176,603.306030 552.076660,615.274170 
	C528.438110,626.884766 503.427917,633.941772 477.455933,637.965576 
	C456.228943,641.254211 434.887909,641.519104 413.520599,640.789856 
	C376.623108,639.530579 340.398407,633.237427 304.384308,625.553772 
	C292.851257,623.093201 281.343109,620.515991 269.411987,618.079346 
	C258.995605,615.442322 248.953918,612.845642 238.994064,609.965942 
	C220.965561,604.753235 202.985428,599.373230 184.987961,594.053467 
	C184.417282,593.884766 183.877869,593.610413 182.233597,592.942261 
	C187.168640,590.827637 191.362137,589.459045 195.132339,587.338013 
	C208.483994,579.826477 221.919296,572.422974 234.901550,564.304688 
	C256.700195,550.673279 277.986542,536.219971 299.836151,522.673279 
	C325.736542,506.615143 351.811981,490.817993 378.168152,475.522278 
	C404.676331,460.138367 432.872375,448.369446 462.082672,439.119690 
	C479.534027,433.593506 497.311523,429.443237 515.627075,427.976593 
	C521.565735,427.501038 527.504517,427.026520 534.653259,426.454742 
	C525.648560,423.441071 517.711426,420.382355 509.549042,418.145752 
	C496.842010,414.663910 484.089783,411.168884 471.158569,408.730103 
	C456.122223,405.894226 440.930786,403.535889 425.699005,402.174683 
	C409.367432,400.715210 392.914703,400.270691 376.507324,400.097595 
	C360.992249,399.933868 345.435425,400.198517 329.955750,401.191498 
	C314.158661,402.204773 298.434479,404.347351 282.673340,405.945587 
	C281.601318,406.054260 280.486847,405.744293 278.526855,405.537903 
	C283.851196,398.596344 288.399628,391.983795 293.642700,385.977600 
	C303.526520,374.655365 313.672180,363.552612 323.956390,352.590759 
	C346.914551,328.119873 373.344940,308.030060 402.360077,291.293121 
	C427.279938,276.918488 453.684509,266.054047 481.751221,259.774628 
	C495.705994,256.652496 509.965454,254.346542 524.209839,253.208679 
	C540.415405,251.914169 556.871155,250.993484 573.012024,252.354736 
	C592.654663,254.011307 612.359802,257.056976 631.526184,261.641174 
	C651.327271,266.377197 670.513916,273.681763 689.975647,279.842926 
	C690.254517,279.931213 690.614746,279.762665 691.985474,279.555603 
	C652.195557,228.011627 612.721619,176.877029 572.901733,125.294273 
	C616.735779,99.461990 660.267456,73.807930 704.359680,47.823505 
	C736.940613,122.437469 769.435974,196.855545 802.165588,271.809998 
	C807.442200,263.993134 811.904236,256.465668 817.261169,249.640656 
	C827.958191,236.012375 838.847900,222.509048 850.238220,209.460587 
	C857.589539,201.039200 865.564575,193.051620 873.982605,185.696548 
	C888.608276,172.917709 904.113770,161.293991 921.220520,151.838745 
	C940.738464,141.050766 961.256592,133.113831 983.238281,129.576263 
	C995.583374,127.589546 1008.011169,126.636864 1020.745239,127.673355 
	C1039.932251,129.235077 1058.216431,133.540878 1075.880981,140.875259 
	C1091.018188,147.160339 1105.193115,155.199936 1118.520630,164.744003 
	C1135.266602,176.736206 1150.664062,190.236191 1165.096191,205.871735 
	C1159.470581,207.715439 1154.392334,209.404968 1149.298340,211.044754 
	C1125.291870,218.772446 1103.277954,230.136612 1085.439209,248.223648 
	C1068.777100,265.117615 1058.684326,285.630402 1054.969849,309.148712 
	C1054.024780,315.132629 1053.327759,321.155670 1052.417847,327.892853 
	C1064.022705,325.247314 1074.475342,322.419373 1085.096924,320.551117 
	C1099.700195,317.982513 1114.429688,316.129242 1129.107910,313.989014 
	C1156.189331,310.040283 1183.464600,310.676636 1210.675781,311.180878 
	C1224.837158,311.443298 1239.027954,313.102722 1253.091064,314.985779 
	C1272.344727,317.563904 1291.597046,320.411652 1310.644897,324.180359 
	C1324.332153,326.888428 1337.831055,330.828613 1351.149658,335.052765 
	C1368.718018,340.624817 1386.363525,346.202057 1403.366821,353.247040 
	C1426.825439,362.966736 1449.480957,374.476990 1470.838867,388.399170 
	C1486.234863,398.435150 1500.669312,409.677979 1513.793335,422.488281 
	C1519.655396,428.210175 1524.525879,434.952332 1529.773804,441.291504 
	C1530.236450,441.850555 1530.159058,442.856506 1530.580444,443.910706 
z"/>
</svg>